<?xml version="1.0" encoding="utf-8" ?>
<svg xmlns="http://www.w3.org/2000/svg" xmlns:xlink="http://www.w3.org/1999/xlink" width="220" height="36">
	<defs>
		<clipPath id="clip_0">
			<rect x="-91" y="-32" width="1208" height="1394" clip-rule="evenodd"/>
		</clipPath>
	</defs>
	<g clip-path="url(#clip_0)">
		<path fill="rgb(255,255,255)" stroke="none" transform="translate(50.7693 8.39999)" d="M32.3842 16.0234C33.8213 14.7056 34.7734 12.8892 35.2403 10.5741L35.8804 7.4259C36.291 5.35112 35.8885 3.5948 34.6727 2.15688C33.457 0.718951 31.8669 0 29.9024 0C27.8171 0 26.074 0.656869 24.6731 1.97063C23.2721 3.28439 22.3382 5.10279 21.8712 7.4259L21.2312 10.5741C20.8125 12.6649 21.1949 14.4252 22.3785 15.8551C23.562 17.2851 25.136 18 27.1005 18C29.1858 18 30.947 17.3411 32.3842 16.0234ZM9.79435 12.4726L8.81612 0.252336L3.51437 0.252336L0 17.7477L4.04576 17.7477L4.91529 13.4099L6.05052 5.99599L6.12298 5.99599L7.4152 17.7477L10.1325 17.7477L16.2192 5.88785L16.2917 5.91188L14.4198 13.4099L13.5503 17.7477L17.596 17.7477L21.1104 0.252336L15.7966 0.252336L9.86681 12.4846L9.79435 12.4726ZM42.6918 13.5421L42.6797 13.0013L41.7015 0.252336L37.4987 0.252336L39.8899 17.7477L44.2497 17.7477L52.305 0.252336L48.0781 0.252336L42.9454 13.0494L42.7642 13.5541L42.6918 13.5421ZM54.8532 17.7477L50.8316 17.7477L54.346 0.252336L58.3676 0.252336L54.8532 17.7477ZM63.1862 10.2617L69.4783 10.2617L70.1063 7.13752L63.8142 7.13752L64.5751 3.3765L72.0265 3.3765L72.6545 0.252336L61.1573 0.252336L57.643 17.7477L69.116 17.7477L69.744 14.6235L62.3167 14.6235L63.1862 10.2617ZM82.7146 10.7063L76.3017 10.7063L74.8887 17.7477L70.843 17.7477L74.3574 0.252336L85.9632 0.252336L85.3352 3.3765L77.7751 3.3765L76.9297 7.58211L83.3426 7.58211L82.7146 10.7063ZM84.4295 17.7477L88.4511 17.7477L91.9654 0.252336L87.9438 0.252336L84.4295 17.7477ZM105.033 17.7477L100.999 17.7477L97.5208 7.00534L97.4483 7.01736L95.2866 17.7477L91.2408 17.7477L94.7552 0.252336L98.801 0.252336L102.279 10.9947L102.352 10.9826L104.513 0.252336L108.547 0.252336L105.033 17.7477ZM121.222 2.36716C120.01 0.957269 118.49 0.252336 116.663 0.252336L111.095 0.252336L107.581 17.7477L114.042 17.7477C115.99 17.7477 117.655 17.1389 119.036 15.9212C120.417 14.7036 121.332 12.9613 121.783 10.6943L122.423 7.54606C122.834 5.50333 122.433 3.77704 121.222 2.36716ZM128.269 10.2617L134.561 10.2617L135.189 7.13752L128.897 7.13752L129.657 3.3765L137.109 3.3765L137.737 0.252336L126.24 0.252336L122.725 17.7477L134.198 17.7477L134.826 14.6235L127.399 14.6235L128.269 10.2617ZM141.324 11.0427L139.983 17.7477L135.925 17.7477L139.44 0.252336L145.816 0.252336C147.604 0.252336 148.99 0.728967 149.977 1.68224C150.963 2.63552 151.299 3.9092 150.985 5.50334C150.784 6.48065 150.399 7.28371 149.832 7.91255C149.264 8.54139 148.493 9.05207 147.519 9.44459C148.421 9.76502 149.035 10.2857 149.361 11.0067C149.687 11.7276 149.749 12.5888 149.548 13.5901L149.331 14.6956C149.234 15.1682 149.192 15.6929 149.204 16.2697C149.216 16.8465 149.355 17.259 149.62 17.5073L149.572 17.7477L145.418 17.7477C145.168 17.4993 145.059 17.0688 145.092 16.4559C145.124 15.8431 145.196 15.2483 145.309 14.6716L145.526 13.6142C145.704 12.725 145.647 12.0741 145.357 11.6615C145.067 11.249 144.54 11.0427 143.775 11.0427L141.324 11.0427ZM31.8588 7.40187C32.1165 6.12015 31.9977 5.08679 31.5025 4.30174C31.0074 3.51669 30.2647 3.12417 29.2744 3.12417C28.3968 3.12417 27.6782 3.51268 27.1186 4.28972C26.5591 5.06676 26.1505 6.10413 25.8928 7.40187L25.2528 10.5741C24.9871 11.8879 25.0817 12.9332 25.5366 13.7103C25.9915 14.4873 26.7221 14.8758 27.7285 14.8758C28.59 14.8758 29.3227 14.4793 29.9265 13.6862C30.5304 12.8932 30.9611 11.8558 31.2187 10.5741L31.8588 7.40187ZM114.513 3.3765L112.255 14.6235L114.392 14.6235C115.262 14.6235 115.974 14.279 116.53 13.5901C117.085 12.9012 117.488 11.9359 117.738 10.6943L118.378 7.52203C118.627 6.25634 118.504 5.249 118.009 4.5C117.514 3.751 116.763 3.3765 115.757 3.3765L114.513 3.3765ZM144.319 7.91856L141.952 7.91856L142.87 3.3765L145.188 3.3765C145.897 3.3765 146.398 3.58278 146.692 3.99533C146.986 4.40788 147.06 4.99466 146.915 5.75567C146.778 6.43659 146.47 6.96729 145.991 7.3478C145.512 7.72831 144.955 7.91856 144.319 7.91856Z" fill-rule="evenodd"/>
	</g>
	<defs>
		<clipPath id="clip_1">
			<rect x="-91" y="-32" width="1208" height="1394" clip-rule="evenodd"/>
		</clipPath>
	</defs>
	<g clip-path="url(#clip_1)">
		<path fill="rgb(37,134,250)" stroke="none" transform="translate(0.255005 0.12558)" d="M219.49 35.7488L18.1505 35.7488C8.16133 35.7488 0 27.7116 0 17.8744C0 8.03721 8.16133 0 18.1505 0C28.1396 0 36.3009 8.03721 36.3009 17.8744C36.3009 24.4047 32.7303 30.0977 27.417 33.2372L219.49 33.2372L219.49 35.7488ZM33.7505 17.8744C33.7505 9.4186 26.7369 2.51163 18.1505 2.51163C9.56406 2.51163 2.55042 9.4186 2.55042 17.8744C2.55042 26.3302 9.52155 33.2372 18.1505 33.2372C26.7794 33.2372 33.7505 26.3302 33.7505 17.8744Z" fill-rule="evenodd"/>
	</g>
	<defs>
		<clipPath id="clip_2">
			<rect x="-91" y="-32" width="1208" height="1394" clip-rule="evenodd"/>
		</clipPath>
	</defs>
	<g clip-path="url(#clip_2)">
		<path fill="rgb(37,134,250)" stroke="none" transform="translate(7.82129 7.51395)" d="M7.73626 7.6814C6.84362 8.56046 5.65342 8.97907 4.50574 8.97907C3.31554 8.97907 2.16785 8.5186 1.31772 7.6814C0.467576 6.80233 0 5.71395 0 4.5C0 3.28605 0.467576 2.15581 1.31772 1.3186C3.10301 -0.439535 5.95097 -0.439535 7.73626 1.3186C8.5864 2.19767 9.05398 3.28605 9.05398 4.5C9.05398 5.71395 8.5864 6.84419 7.73626 7.6814ZM4.50574 2.53256C3.99565 2.53256 3.48557 2.74186 3.10301 3.1186C2.72044 3.49535 2.50791 3.95581 2.50791 4.5C2.50791 5.00233 2.72044 5.50465 3.10301 5.8814C3.86813 6.63488 5.14334 6.63488 5.90847 5.8814C6.29103 5.50465 6.50356 5.00233 6.50356 4.5C6.50356 3.99767 6.29103 3.49535 5.90847 3.1186C5.5259 2.74186 5.01582 2.53256 4.50574 2.53256Z" fill-rule="evenodd"/>
	</g>
	<defs>
		<clipPath id="clip_3">
			<rect x="-91" y="-32" width="1208" height="1394" clip-rule="evenodd"/>
		</clipPath>
	</defs>
	<g clip-path="url(#clip_3)">
		<path fill="rgb(37,134,250)" stroke="none" transform="translate(19.957 19.5279)" d="M1.33897 7.63953C-0.446323 5.8814 -0.446323 3.07674 1.33897 1.3186C3.08175 -0.439535 5.97223 -0.439535 7.80002 1.3186C9.58532 3.07674 9.58532 5.8814 7.80002 7.63953C6.90738 8.5186 5.71718 8.93721 4.5695 8.93721C3.3793 8.93721 2.23161 8.5186 1.33897 7.63953ZM3.12426 3.07674C2.35914 3.83023 2.35914 5.08605 3.12426 5.83953C3.88939 6.59302 5.16459 6.59302 5.92972 5.83953C6.69484 5.08605 6.69484 3.83023 5.92972 3.07674C5.54716 2.7 5.03707 2.4907 4.52699 2.4907C4.01691 2.4907 3.50682 2.7 3.12426 3.07674Z" fill-rule="evenodd"/>
	</g>
	<defs>
		<clipPath id="clip_4">
			<rect x="-91" y="-32" width="1208" height="1394" clip-rule="evenodd"/>
		</clipPath>
	</defs>
	<g clip-path="url(#clip_4)">
		<path fill="rgb(37,134,250)" stroke="none" transform="translate(19.9783 7.54535)" d="M7.73626 7.65C6.84362 8.52907 5.65342 8.94767 4.50574 8.94767C3.35805 8.94767 2.16785 8.48721 1.31772 7.65C0.467576 6.77093 0 5.68256 0 4.46861C0 3.25465 0.467576 2.12442 1.31772 1.28721C3.0605 -0.42907 5.95097 -0.42907 7.73626 1.28721C8.5864 2.16628 9.05398 3.25465 9.05398 4.46861C9.05398 5.68256 8.5864 6.81279 7.73626 7.65ZM4.50574 2.50116C3.99565 2.50116 3.48557 2.71047 3.10301 3.08721C2.72044 3.46395 2.50791 3.92442 2.50791 4.4686C2.50791 4.97093 2.72044 5.47326 3.10301 5.85C3.86813 6.60349 5.14334 6.60349 5.90847 5.85C6.29103 5.47326 6.50356 4.97093 6.50356 4.4686C6.50356 3.96628 6.29103 3.46395 5.90847 3.08721C5.5259 2.71047 5.01582 2.50116 4.50574 2.50116Z" fill-rule="evenodd"/>
	</g>
	<defs>
		<clipPath id="clip_5">
			<rect x="-91" y="-32" width="1208" height="1394" clip-rule="evenodd"/>
		</clipPath>
	</defs>
	<g clip-path="url(#clip_5)">
		<path fill="rgb(37,134,250)" stroke="none" transform="translate(7.75757 19.5279)" d="M1.33897 7.63953C-0.446323 5.8814 -0.446323 3.07674 1.33897 1.3186C3.12426 -0.439535 6.01473 -0.439535 7.80002 1.3186C9.58532 3.07674 9.58532 5.8814 7.80002 7.63953C6.90738 8.5186 5.71718 8.93721 4.5695 8.93721C3.3793 8.93721 2.23161 8.5186 1.33897 7.63953ZM3.16677 5.83953C3.93189 6.59302 5.2071 6.59302 5.97223 5.83953C6.73735 5.08605 6.73735 3.83023 5.97223 3.07674C5.58966 2.7 5.07958 2.4907 4.5695 2.4907C4.05941 2.4907 3.54933 2.7 3.16677 3.07674C2.40164 3.83023 2.40164 5.08605 3.16677 5.83953Z" fill-rule="evenodd"/>
	</g>
	<defs>
		<clipPath id="clip_6">
			<rect x="-91" y="-32" width="1208" height="1394" clip-rule="evenodd"/>
		</clipPath>
	</defs>
	<g clip-path="url(#clip_6)">
		<path fill="rgb(37,134,250)" stroke="none" transform="translate(16.2802 15.907)" d="M4.25069 2.09302C4.25069 3.26512 3.31554 4.18605 2.12535 4.18605C0.935153 4.18605 0 3.26512 0 2.09302C0 0.92093 0.935153 0 2.12535 0C3.31554 0 4.25069 0.92093 4.25069 2.09302ZM2.55042 2.09302C2.55042 1.84186 2.38039 1.67442 2.12535 1.67442C1.87031 1.67442 1.70028 1.84186 1.70028 2.09302C1.70028 2.34419 1.87031 2.51163 2.12535 2.51163C2.38039 2.51163 2.55042 2.34419 2.55042 2.09302Z" fill-rule="evenodd"/>
	</g>
</svg>
