<?xml version="1.0" encoding="utf-8" ?>
<svg xmlns="http://www.w3.org/2000/svg" xmlns:xlink="http://www.w3.org/1999/xlink" width="18" height="18">
	<defs>
		<clipPath id="clip_0">
			<rect x="-1068.1055" y="-40.705811" width="1197.9736" height="1382.4298" clip-rule="evenodd"/>
		</clipPath>
	</defs>
	<g clip-path="url(#clip_0)">
		<path fill="rgb(37,134,250)" stroke="none" transform="matrix(0.9917 0 0 0.9917 0.947266 0.945587)" d="M7.68389 0C11.9392 0 15.3921 3.45289 15.3921 7.70821C15.3921 9.65349 14.6626 11.4286 13.4711 12.8146L17.1185 16.462L16.4377 17.1429L12.7903 13.4954C11.4286 14.6869 9.6535 15.4164 7.70821 15.4164C3.45289 15.4164 0 11.9635 0 7.70821C0 3.45289 3.42857 0 7.68389 0ZM0.972644 7.68389C0.972644 11.4043 3.98784 14.4195 7.70821 14.4195C11.4043 14.4195 14.4195 11.4043 14.4438 7.68389C14.4438 3.96353 11.4286 0.948328 7.70821 0.948328C3.98784 0.948328 0.972644 3.96353 0.972644 7.68389Z" fill-rule="evenodd"/>
	</g>
</svg>
